<?xml version="1.0" encoding="utf-8"?>
<!-- Generator: Adobe Illustrator 17.0.0, SVG Export Plug-In . SVG Version: 6.00 Build 0)  -->
<!DOCTYPE svg PUBLIC "-//W3C//DTD SVG 1.1//EN" "http://www.w3.org/Graphics/SVG/1.1/DTD/svg11.dtd">
<svg version="1.1" id="Layer_1" xmlns="http://www.w3.org/2000/svg" xmlns:xlink="http://www.w3.org/1999/xlink" x="0px" y="0px"
	 width="538.583px" height="196.933px" viewBox="0 0 538.583 196.933" enable-background="new 0 0 538.583 196.933"
	 xml:space="preserve">
<g>
	<g>
		<circle fill="#FFFFFF" cx="345.827" cy="39.685" r="11.339"/>
		<path fill="#FFFFFF" d="M80.08,62.363v19.843c7.827,0,14.173,6.345,14.173,14.173h19.843
			C114.095,77.592,98.866,62.363,80.08,62.363z"/>
		<path fill="#FFFFFF" d="M80.08,114.094v19.843c18.786,0,34.016-15.229,34.016-34.016H94.253
			C94.253,107.749,87.907,114.094,80.08,114.094z"/>
		<path fill="#FFFFFF" d="M62.363,99.921H42.52c0,18.787,15.229,34.016,34.016,34.016v-19.843
			C68.709,114.094,62.363,107.749,62.363,99.921z"/>
		<path fill="#FFFFFF" d="M179.292,99.921H159.45c0,18.787,15.229,34.016,34.016,34.016v-19.843
			C185.637,114.094,179.292,107.749,179.292,99.921z"/>
		<path fill="#FFFFFF" d="M245.198,114.094v19.843c18.786,0,34.016-15.229,34.016-34.016H259.37
			C259.37,107.749,253.025,114.094,245.198,114.094z"/>
		<path fill="#FFFFFF" d="M245.198,62.363v19.843c7.827,0,14.173,6.346,14.173,14.173h19.843
			C279.213,77.592,263.984,62.363,245.198,62.363z"/>
		<path fill="#FFFFFF" d="M207.638,96.379h19.843c0-7.827,6.346-14.173,14.173-14.173V62.363
			C222.868,62.363,207.638,77.592,207.638,96.379z"/>
		<path fill="#FFFFFF" d="M227.481,99.922h-19.843v51.023h19.843v-20.103c4.316,1.982,9.113,3.095,14.173,3.095v-19.843
			C233.827,114.094,227.481,107.749,227.481,99.922z"/>
		<rect x="125.434" y="62.363" fill="#FFFFFF" width="19.842" height="34.016"/>
		<rect x="125.434" y="99.921" fill="#FFFFFF" width="19.842" height="34.016"/>
		<circle fill="#FFFFFF" cx="135.355" cy="156.615" r="11.339"/>
		<rect x="335.906" y="62.363" fill="#FFFFFF" width="19.843" height="34.016"/>
		<rect x="335.906" y="99.921" fill="#FFFFFF" width="19.843" height="34.016"/>
		<path fill="#FFFFFF" d="M290.551,96.379h19.843c0-7.828,6.346-14.173,14.173-14.173V62.363
			C305.781,62.363,290.551,77.592,290.551,96.379z"/>
		<rect x="290.551" y="99.922" fill="#FFFFFF" width="19.843" height="34.016"/>
		<path fill="#FFFFFF" d="M372.756,96.379h19.842c0-7.828,6.346-14.173,14.174-14.173V62.363
			C387.985,62.363,372.756,77.592,372.756,96.379z"/>
		<rect x="372.756" y="99.922" fill="#FFFFFF" width="19.842" height="34.016"/>
		<path fill="#FFFFFF" d="M496.062,96.379c0-18.787-15.229-34.016-34.016-34.016v19.842c7.827,0,14.173,6.346,14.173,14.173H496.062
			z"/>
		<rect x="476.22" y="99.922" fill="#FFFFFF" width="19.843" height="34.016"/>
		<path fill="#FFFFFF" d="M410.315,62.363v19.842c7.827,0,14.173,6.346,14.173,14.173h19.843c0-7.828,6.346-14.173,14.173-14.173
			V62.363c-9.415,0-17.935,3.826-24.094,10.006C428.25,66.189,419.729,62.363,410.315,62.363z"/>
		<rect x="424.487" y="99.922" fill="#FFFFFF" width="19.843" height="34.016"/>
		<polygon fill="#FFFFFF" points="159.45,62.363 159.45,82.205 159.45,96.378 179.292,96.378 179.292,82.205 193.465,82.205 
			193.465,62.363 179.292,62.363 		"/>
		<path fill="#FFFFFF" d="M62.363,45.355L42.52,51.024v45.354h19.843c0-7.828,6.346-14.173,14.173-14.173V62.363
			c-5.06,0-9.857,1.113-14.173,3.095V45.355z"/>
	</g>
</g>
</svg>
