<?xml version="1.0" standalone="no"?>
<!DOCTYPE svg PUBLIC "-//W3C//DTD SVG 20010904//EN"
 "http://www.w3.org/TR/2001/REC-SVG-20010904/DTD/svg10.dtd">
<svg version="1.0" xmlns="http://www.w3.org/2000/svg"
 width="593.000000pt" height="182.000000pt" viewBox="0 0 593.000000 182.000000"
 preserveAspectRatio="xMidYMid meet">

<g transform="translate(0.000000,182.000000) scale(0.100000,-0.100000)"
fill="#000000" stroke="none">
<path d="M280 1530 l0 -290 -140 0 -140 0 0 -560 0 -560 1005 0 1005 0 0 560
0 560 -100 0 -100 0 0 290 0 290 -765 0 -765 0 0 -290z m1220 -360 l0 -50 150
0 150 0 0 50 0 50 97 0 98 0 -100 -100 -100 -100 -147 0 -148 0 0 -50 0 -50
97 0 97 0 -49 -50 c-45 -46 -53 -50 -97 -50 l-48 0 0 -47 c0 -44 -4 -52 -52
-100 l-52 -53 -148 0 -148 0 0 -50 0 -50 97 0 97 0 -49 -50 c-45 -46 -53 -50
-97 -50 l-48 0 0 -47 c0 -43 -4 -52 -47 -95 l-47 -48 -355 0 -355 0 44 45 44
45 108 0 108 0 0 50 0 50 -57 0 -57 0 149 150 150 150 107 0 108 0 0 50 0 50
-57 0 -57 0 149 150 150 150 107 0 108 0 0 50 0 50 50 0 50 0 0 -50z"/>
<path d="M1100 970 l0 -50 150 0 150 0 0 50 0 50 -150 0 -150 0 0 -50z"/>
<path d="M1100 770 l0 -50 150 0 150 0 0 50 0 50 -150 0 -150 0 0 -50z"/>
<path d="M700 570 l0 -50 150 0 150 0 0 50 0 50 -150 0 -150 0 0 -50z"/>
<path d="M700 370 l0 -50 150 0 150 0 0 50 0 50 -150 0 -150 0 0 -50z"/>
<path d="M2290 1007 c0 -191 -4 -297 -10 -297 -6 0 -10 -125 -10 -355 l0 -355
1425 0 1425 0 0 350 0 350 405 0 405 0 0 295 0 295 -1173 0 c-646 0 -1465 3
-1820 7 l-647 6 0 -296z"/>
</g>
</svg>
